# xmcd CD database file
#
# Track frame offsets:
#	150
#	18957
#	34693
#	48881
#	68293
#	86107
#	99298
#	114507
#	148266
#	164854
#	181786
#	202204
#	217608
#
# Disc length: 3006 seconds
#
# Revision: 0
# Processed by: cddbd v1.5.2PL0 Copyright (c) Steve Scherf et al.
# Submitted via: CDex 1.70beta2
#
DISCID=ab0bbc0d
DTITLE=Dinko Stipanicev - Swingin´ in a blue way
DYEAR=2007
DGENRE=Jazz
TTITLE0=Swingin´ in a blue way
TTITLE1=Moja mala nema mano
TTITLE2=Friends forever
TTITLE3=Sweet talking
TTITLE4=Sweet Georgia Brown
TTITLE5=Little blue Dee
TTITLE6=La gitane
TTITLE7=Almost gone
TTITLE8=Valse a Dinko
TTITLE9=There will never be another you
TTITLE10=Kordun winter
TTITLE11=Dinette
TTITLE12=The way you look tonight
EXTD=YEAR: 2007
EXTT0=
EXTT1=
EXTT2=
EXTT3=
EXTT4=
EXTT5=
EXTT6=
EXTT7=
EXTT8=
EXTT9=
EXTT10=
EXTT11=
EXTT12=
PLAYORDER=
